<mxfile host="app.diagrams.net" agent="Mozilla/5.0 (Windows NT 10.0; Win64; x64) AppleWebKit/537.36 (KHTML, like Gecko) Chrome/127.0.0.0 Safari/537.36 Edg/127.0.0.0" version="24.7.7">
  <diagram name="Page-1" id="_aHA6KS0DWaPRjlBO89R">
    <mxGraphModel dx="1666" dy="791" grid="1" gridSize="10" guides="1" tooltips="1" connect="1" arrows="1" fold="1" page="1" pageScale="1" pageWidth="850" pageHeight="1100" math="0" shadow="0">
      <root>
        <mxCell id="0" />
        <mxCell id="1" parent="0" />
        <mxCell id="7_oxSeVeOwHi9KzFBdYc-1" value="start" style="ellipse;whiteSpace=wrap;html=1;" vertex="1" parent="1">
          <mxGeometry x="320" y="160" width="120" height="80" as="geometry" />
        </mxCell>
        <mxCell id="7_oxSeVeOwHi9KzFBdYc-2" value="" style="endArrow=classic;html=1;rounded=0;exitX=0.5;exitY=1;exitDx=0;exitDy=0;" edge="1" parent="1" source="7_oxSeVeOwHi9KzFBdYc-1" target="7_oxSeVeOwHi9KzFBdYc-4">
          <mxGeometry width="50" height="50" relative="1" as="geometry">
            <mxPoint x="400" y="430" as="sourcePoint" />
            <mxPoint x="430" y="370" as="targetPoint" />
          </mxGeometry>
        </mxCell>
        <mxCell id="7_oxSeVeOwHi9KzFBdYc-3" value="input value" style="shape=parallelogram;perimeter=parallelogramPerimeter;whiteSpace=wrap;html=1;fixedSize=1;" vertex="1" parent="1">
          <mxGeometry x="320" y="400" width="120" height="80" as="geometry" />
        </mxCell>
        <mxCell id="7_oxSeVeOwHi9KzFBdYc-4" value="sum = 0" style="rounded=0;whiteSpace=wrap;html=1;" vertex="1" parent="1">
          <mxGeometry x="320" y="280" width="120" height="80" as="geometry" />
        </mxCell>
        <mxCell id="7_oxSeVeOwHi9KzFBdYc-5" value="" style="endArrow=classic;html=1;rounded=0;exitX=0.5;exitY=1;exitDx=0;exitDy=0;entryX=0.5;entryY=0;entryDx=0;entryDy=0;" edge="1" parent="1" source="7_oxSeVeOwHi9KzFBdYc-4" target="7_oxSeVeOwHi9KzFBdYc-3">
          <mxGeometry width="50" height="50" relative="1" as="geometry">
            <mxPoint x="440" y="580" as="sourcePoint" />
            <mxPoint x="490" y="530" as="targetPoint" />
          </mxGeometry>
        </mxCell>
        <mxCell id="7_oxSeVeOwHi9KzFBdYc-6" style="edgeStyle=orthogonalEdgeStyle;rounded=0;orthogonalLoop=1;jettySize=auto;html=1;exitX=0.5;exitY=1;exitDx=0;exitDy=0;" edge="1" parent="1" source="7_oxSeVeOwHi9KzFBdYc-3" target="7_oxSeVeOwHi9KzFBdYc-3">
          <mxGeometry relative="1" as="geometry" />
        </mxCell>
        <mxCell id="7_oxSeVeOwHi9KzFBdYc-7" value="" style="endArrow=classic;html=1;rounded=0;exitX=0.5;exitY=1;exitDx=0;exitDy=0;entryX=0.5;entryY=0;entryDx=0;entryDy=0;" edge="1" parent="1" source="7_oxSeVeOwHi9KzFBdYc-3" target="7_oxSeVeOwHi9KzFBdYc-13">
          <mxGeometry width="50" height="50" relative="1" as="geometry">
            <mxPoint x="410" y="470" as="sourcePoint" />
            <mxPoint x="400" y="500" as="targetPoint" />
            <Array as="points" />
          </mxGeometry>
        </mxCell>
        <mxCell id="7_oxSeVeOwHi9KzFBdYc-8" style="edgeStyle=orthogonalEdgeStyle;rounded=0;orthogonalLoop=1;jettySize=auto;html=1;entryX=0.5;entryY=0;entryDx=0;entryDy=0;" edge="1" parent="1" source="7_oxSeVeOwHi9KzFBdYc-13" target="7_oxSeVeOwHi9KzFBdYc-15">
          <mxGeometry relative="1" as="geometry">
            <mxPoint x="600" y="720" as="targetPoint" />
            <Array as="points">
              <mxPoint x="400" y="670" />
              <mxPoint x="400" y="670" />
            </Array>
          </mxGeometry>
        </mxCell>
        <mxCell id="7_oxSeVeOwHi9KzFBdYc-9" value="No" style="edgeLabel;html=1;align=center;verticalAlign=middle;resizable=0;points=[];" vertex="1" connectable="0" parent="7_oxSeVeOwHi9KzFBdYc-8">
          <mxGeometry x="-0.8557" relative="1" as="geometry">
            <mxPoint y="38" as="offset" />
          </mxGeometry>
        </mxCell>
        <mxCell id="7_oxSeVeOwHi9KzFBdYc-10" value="No" style="edgeLabel;html=1;align=center;verticalAlign=middle;resizable=0;points=[];" vertex="1" connectable="0" parent="7_oxSeVeOwHi9KzFBdYc-8">
          <mxGeometry x="-0.72" y="-1" relative="1" as="geometry">
            <mxPoint as="offset" />
          </mxGeometry>
        </mxCell>
        <mxCell id="7_oxSeVeOwHi9KzFBdYc-11" style="edgeStyle=orthogonalEdgeStyle;rounded=0;orthogonalLoop=1;jettySize=auto;html=1;entryX=0.5;entryY=0;entryDx=0;entryDy=0;" edge="1" parent="1" source="7_oxSeVeOwHi9KzFBdYc-13" target="7_oxSeVeOwHi9KzFBdYc-17">
          <mxGeometry relative="1" as="geometry">
            <mxPoint x="550" y="630" as="targetPoint" />
          </mxGeometry>
        </mxCell>
        <mxCell id="7_oxSeVeOwHi9KzFBdYc-12" value="Yes" style="edgeLabel;html=1;align=center;verticalAlign=middle;resizable=0;points=[];" vertex="1" connectable="0" parent="7_oxSeVeOwHi9KzFBdYc-11">
          <mxGeometry x="-0.05" y="-2" relative="1" as="geometry">
            <mxPoint as="offset" />
          </mxGeometry>
        </mxCell>
        <mxCell id="7_oxSeVeOwHi9KzFBdYc-13" value="Is value = -1?" style="rhombus;whiteSpace=wrap;html=1;" vertex="1" parent="1">
          <mxGeometry x="317.5" y="520" width="125" height="80" as="geometry" />
        </mxCell>
        <mxCell id="7_oxSeVeOwHi9KzFBdYc-14" style="edgeStyle=orthogonalEdgeStyle;rounded=0;orthogonalLoop=1;jettySize=auto;html=1;entryX=0;entryY=0.5;entryDx=0;entryDy=0;" edge="1" parent="1" source="7_oxSeVeOwHi9KzFBdYc-15" target="7_oxSeVeOwHi9KzFBdYc-3">
          <mxGeometry relative="1" as="geometry">
            <Array as="points">
              <mxPoint x="270" y="680" />
              <mxPoint x="270" y="440" />
            </Array>
          </mxGeometry>
        </mxCell>
        <mxCell id="7_oxSeVeOwHi9KzFBdYc-15" value="sum = sum + value" style="rounded=0;whiteSpace=wrap;html=1;" vertex="1" parent="1">
          <mxGeometry x="317.5" y="640" width="120" height="80" as="geometry" />
        </mxCell>
        <mxCell id="7_oxSeVeOwHi9KzFBdYc-16" value="stop" style="ellipse;whiteSpace=wrap;html=1;" vertex="1" parent="1">
          <mxGeometry x="480" y="760" width="120" height="80" as="geometry" />
        </mxCell>
        <mxCell id="7_oxSeVeOwHi9KzFBdYc-17" value="output sum&amp;nbsp;" style="rounded=0;whiteSpace=wrap;html=1;" vertex="1" parent="1">
          <mxGeometry x="480" y="640" width="120" height="80" as="geometry" />
        </mxCell>
        <mxCell id="7_oxSeVeOwHi9KzFBdYc-18" value="" style="endArrow=classic;html=1;rounded=0;exitX=0.5;exitY=1;exitDx=0;exitDy=0;entryX=0.5;entryY=0;entryDx=0;entryDy=0;" edge="1" parent="1" source="7_oxSeVeOwHi9KzFBdYc-17" target="7_oxSeVeOwHi9KzFBdYc-16">
          <mxGeometry width="50" height="50" relative="1" as="geometry">
            <mxPoint x="430" y="610" as="sourcePoint" />
            <mxPoint x="480" y="560" as="targetPoint" />
          </mxGeometry>
        </mxCell>
      </root>
    </mxGraphModel>
  </diagram>
</mxfile>
